<svg width="135" height="22" viewBox="0 0 135 22" fill="none" xmlns="http://www.w3.org/2000/svg">
<path d="M18.072 15.9279C18.072 17.6345 17.5387 18.9252 16.472 19.7999C15.4267 20.6745 13.5707 21.1119 10.904 21.1119H0.919998V0.855871H10.584C12.3547 0.855871 13.7307 1.04787 14.712 1.43187C15.7147 1.79454 16.4187 2.33854 16.824 3.06387C17.2293 3.7892 17.432 4.69587 17.432 5.78387C17.432 7.2772 17.0693 8.43987 16.344 9.27187C15.64 10.0825 14.3067 10.5732 12.344 10.7439V10.8399C13.7947 10.9465 14.936 11.1919 15.768 11.5759C16.6 11.9385 17.1867 12.4719 17.528 13.1759C17.8907 13.8799 18.072 14.7972 18.072 15.9279ZM9.176 4.88787H6.04V8.85587H9.176C10.2213 8.85587 10.9787 8.72787 11.448 8.47187C11.9173 8.19454 12.152 7.6612 12.152 6.87187C12.152 6.10387 11.9173 5.5812 11.448 5.30387C10.9787 5.02654 10.2213 4.88787 9.176 4.88787ZM9.816 13.0479H6.04V17.1119H9.816C10.8613 17.1119 11.6187 16.9732 12.088 16.6959C12.5573 16.3972 12.792 15.8532 12.792 15.0639C12.792 14.2532 12.5573 13.7199 12.088 13.4639C11.6187 13.1865 10.8613 13.0479 9.816 13.0479Z" fill="#0265DC"/>
<path d="M26.0712 21.1119H20.9512V0.855871H26.0712V21.1119Z" fill="#0265DC"/>
<path d="M43.04 0.855871H48.16V21.1119H43.072L37.312 12.5359C36.864 11.8532 36.4907 11.2772 36.192 10.8079C35.8933 10.3385 35.616 9.8692 35.36 9.39987C35.104 8.93054 34.816 8.37587 34.496 7.73587L34.4 7.86387C34.6987 8.88787 34.88 9.84787 34.944 10.7439C35.008 11.6185 35.04 12.4719 35.04 13.3039V21.1119H29.92V0.855871H35.008L40.768 9.43187C41.216 10.0932 41.5893 10.6692 41.888 11.1599C42.1867 11.6292 42.464 12.0985 42.72 12.5679C42.976 13.0372 43.264 13.5919 43.584 14.2319L43.68 14.1039C43.4667 13.2079 43.3067 12.3439 43.2 11.5119C43.0933 10.6585 43.04 9.81587 43.04 8.98387V0.855871Z" fill="#0265DC"/>
<path d="M70.5737 21.0159V21.1119H65.1338C64.9844 20.5999 64.8031 20.0132 64.5897 19.3519C64.3978 18.6905 64.1844 17.9865 63.9497 17.2399H57.0378C56.6111 18.7332 56.2164 20.0239 55.8537 21.1119H50.4137V21.0479L56.9737 0.855871H64.0137L70.5737 21.0159ZM60.4297 4.50387C60.2164 5.59187 59.9071 6.91454 59.5017 8.47187C59.0964 10.0292 58.6697 11.6185 58.2217 13.2399H62.7977C62.3284 11.6185 61.8911 10.0292 61.4857 8.47187C61.0804 6.91454 60.7711 5.59187 60.5577 4.50387H60.4297Z" fill="#0265DC"/>
<path d="M89.9782 15.9279C89.9782 17.6345 89.4449 18.9252 88.3783 19.7999C87.3329 20.6745 85.4769 21.1119 82.8102 21.1119H72.8262V0.855871H82.4902C84.2609 0.855871 85.6369 1.04787 86.6182 1.43187C87.6209 1.79454 88.3249 2.33854 88.7302 3.06387C89.1356 3.7892 89.3382 4.69587 89.3382 5.78387C89.3382 7.2772 88.9756 8.43987 88.2503 9.27187C87.5462 10.0825 86.2129 10.5732 84.2503 10.7439V10.8399C85.7009 10.9465 86.8422 11.1919 87.6742 11.5759C88.5062 11.9385 89.0929 12.4719 89.4342 13.1759C89.7969 13.8799 89.9782 14.7972 89.9782 15.9279ZM81.0822 4.88787H77.9463V8.85587H81.0822C82.1276 8.85587 82.8849 8.72787 83.3542 8.47187C83.8236 8.19454 84.0583 7.6612 84.0583 6.87187C84.0583 6.10387 83.8236 5.5812 83.3542 5.30387C82.8849 5.02654 82.1276 4.88787 81.0822 4.88787ZM81.7223 13.0479H77.9463V17.1119H81.7223C82.7676 17.1119 83.5249 16.9732 83.9942 16.6959C84.4636 16.3972 84.6982 15.8532 84.6982 15.0639C84.6982 14.2532 84.4636 13.7199 83.9942 13.4639C83.5249 13.1865 82.7676 13.0479 81.7223 13.0479Z" fill="#0265DC"/>
<path d="M92.2175 10.9679C92.2175 8.38654 92.5055 6.33854 93.0815 4.82387C93.6788 3.3092 94.6922 2.2212 96.1215 1.55987C97.5722 0.898538 99.5882 0.567871 102.169 0.567871C104.111 0.567871 105.721 0.749205 107.001 1.11187C108.281 1.47454 109.295 2.0612 110.041 2.87187C110.788 3.68254 111.311 4.75987 111.609 6.10387C111.929 7.42654 112.09 9.04787 112.09 10.9679C112.09 12.9092 111.929 14.5519 111.609 15.8959C111.311 17.2185 110.788 18.2852 110.041 19.0959C109.295 19.9065 108.281 20.4932 107.001 20.8559C105.721 21.2185 104.111 21.3999 102.169 21.3999C100.228 21.3999 98.6175 21.2185 97.3375 20.8559C96.0575 20.4932 95.0442 19.9065 94.2975 19.0959C93.5508 18.2852 93.0175 17.2185 92.6975 15.8959C92.3775 14.5519 92.2175 12.9092 92.2175 10.9679ZM102.169 16.9199C103.535 16.9199 104.559 16.7492 105.242 16.4079C105.924 16.0665 106.383 15.4692 106.618 14.6159C106.852 13.7412 106.969 12.5252 106.969 10.9679C106.969 9.43187 106.852 8.2372 106.618 7.38387C106.383 6.53054 105.924 5.9332 105.242 5.59187C104.559 5.2292 103.535 5.04787 102.169 5.04787C100.825 5.04787 99.8015 5.2292 99.0975 5.59187C98.4148 5.9332 97.9455 6.53054 97.6895 7.38387C97.4548 8.2372 97.3375 9.43187 97.3375 10.9679C97.3375 12.5252 97.4548 13.7412 97.6895 14.6159C97.9455 15.4692 98.4148 16.0665 99.0975 16.4079C99.8015 16.7492 100.825 16.9199 102.169 16.9199Z" fill="#0265DC"/>
<path d="M128.351 10.7759L134.271 21.1119H127.871L124.191 13.9439H124.095L120.415 21.1119H114.015L119.935 10.7759V10.6159L114.399 0.855871H120.703L124.095 7.89587H124.191L127.583 0.855871H133.887L128.351 10.6159V10.7759Z" fill="#0265DC"/>
</svg>
