<svg width="16" height="17" viewBox="0 0 16 17" fill="none" xmlns="http://www.w3.org/2000/svg">
<path fill-rule="evenodd" clip-rule="evenodd" d="M8.83515 13.8518C11.6163 13.4087 13.7418 10.9993 13.7418 8.09334C13.7418 4.87276 11.1311 2.26196 7.91048 2.26196C4.6899 2.26196 2.0791 4.87276 2.0791 8.09334C2.0791 10.9992 4.20462 13.4087 6.98575 13.8518C6.98039 13.8384 6.97743 13.8238 6.97743 13.8085V9.84313C6.97743 9.77872 6.92521 9.72651 6.8608 9.72651H5.69453C5.63012 9.72651 5.5779 9.67429 5.5779 9.60988V8.21035C5.5779 8.14594 5.63012 8.09372 5.69453 8.09372H6.8608C6.92521 8.09372 6.97743 8.04151 6.97743 7.97709V6.46094C6.97743 5.76117 7.72385 4.5949 8.84347 4.5949H10.3596C10.4241 4.5949 10.4763 4.64711 10.4763 4.71152V6.11105C10.4763 6.17547 10.424 6.22768 10.3596 6.22768H9.65986C9.42661 6.22768 8.84347 6.46094 8.84347 6.92745V7.97717C8.84347 8.04158 8.89569 8.09372 8.9601 8.09372H10.1264C10.1908 8.09372 10.243 8.14594 10.243 8.21035V9.60988C10.243 9.67429 10.1908 9.72651 10.1264 9.72651H8.9601C8.89569 9.72651 8.84347 9.77872 8.84347 9.84313V13.8085C8.84347 13.8238 8.84052 13.8384 8.83515 13.8518Z" fill="#F5F8FB"/>
</svg>
