<svg width="16" height="17" viewBox="0 0 16 17" fill="none" xmlns="http://www.w3.org/2000/svg">
<path fill-rule="evenodd" clip-rule="evenodd" d="M5.46249 2.06573C6.11871 2.03552 6.32794 2.02881 7.99955 2.02881C9.67116 2.02881 9.88039 2.03608 10.5361 2.06573C11.1917 2.09538 11.6393 2.2 12.0309 2.35161C12.4409 2.50657 12.813 2.74881 13.1207 3.0621C13.434 3.36923 13.6756 3.7407 13.83 4.15133C13.9822 4.54294 14.0863 4.99049 14.1165 5.64503C14.1467 6.30238 14.1534 6.51161 14.1534 8.18266C14.1534 9.85427 14.1461 10.0635 14.1165 10.7197C14.0868 11.3743 13.9822 11.8218 13.83 12.2134C13.6756 12.6241 13.4336 12.9962 13.1207 13.3038C12.813 13.6171 12.4409 13.8587 12.0309 14.0132C11.6393 14.1653 11.1917 14.2694 10.5372 14.2996C9.88039 14.3298 9.67116 14.3365 7.99955 14.3365C6.32794 14.3365 6.11871 14.3292 5.46249 14.2996C4.80794 14.2699 4.36039 14.1653 3.96878 14.0132C3.55811 13.8587 3.18602 13.6167 2.87843 13.3038C2.56536 12.9965 2.32308 12.6246 2.1685 12.214C2.01689 11.8224 1.91284 11.3748 1.88263 10.7203C1.85242 10.0629 1.8457 9.85371 1.8457 8.18266C1.8457 6.51105 1.85298 6.30182 1.88263 5.64615C1.91228 4.99049 2.01689 4.54294 2.1685 4.15133C2.32331 3.74074 2.56577 3.36884 2.87899 3.06154C3.18615 2.74853 3.55786 2.50626 3.96822 2.35161C4.35983 2.2 4.80738 2.09594 5.46193 2.06573H5.46249ZM10.4863 3.17342C9.83731 3.14377 9.64263 3.13762 7.99955 3.13762C6.35647 3.13762 6.16179 3.14377 5.51284 3.17342C4.91256 3.20084 4.58696 3.30098 4.3699 3.38545C4.08291 3.49734 3.87759 3.62993 3.66221 3.84531C3.45804 4.04394 3.30091 4.28575 3.20235 4.55301C3.11787 4.77007 3.01773 5.09566 2.99032 5.69594C2.96067 6.34489 2.95451 6.53958 2.95451 8.18266C2.95451 9.82574 2.96067 10.0204 2.99032 10.6694C3.01773 11.2697 3.11787 11.5952 3.20235 11.8123C3.30081 12.0792 3.45801 12.3214 3.66221 12.52C3.86081 12.7242 4.10305 12.8814 4.3699 12.9799C4.58696 13.0643 4.91256 13.1645 5.51284 13.1919C6.16179 13.2215 6.35591 13.2277 7.99955 13.2277C9.64319 13.2277 9.83731 13.2215 10.4863 13.1919C11.0865 13.1645 11.4121 13.0643 11.6292 12.9799C11.9162 12.868 12.1215 12.7354 12.3369 12.52C12.5411 12.3214 12.6983 12.0792 12.7968 11.8123C12.8812 11.5952 12.9814 11.2697 13.0088 10.6694C13.0384 10.0204 13.0446 9.82574 13.0446 8.18266C13.0446 6.53958 13.0384 6.34489 13.0088 5.69594C12.9814 5.09566 12.8812 4.77007 12.7968 4.55301C12.6849 4.26601 12.5523 4.0607 12.3369 3.84531C12.1383 3.64116 11.8964 3.48403 11.6292 3.38545C11.4121 3.30098 11.0865 3.20084 10.4863 3.17342ZM7.21354 10.0797C7.65251 10.2625 8.1413 10.2871 8.59643 10.1495C9.05157 10.0119 9.4448 9.72052 9.70898 9.32517C9.97316 8.92983 10.0919 8.45503 10.0449 7.98188C9.99789 7.50872 9.78808 7.06656 9.4513 6.73091C9.23661 6.51635 8.97701 6.35206 8.69121 6.24987C8.4054 6.14768 8.10049 6.11013 7.79843 6.13992C7.49637 6.16972 7.20467 6.26611 6.94434 6.42217C6.684 6.57823 6.4615 6.79007 6.29287 7.04243C6.12423 7.2948 6.01364 7.58142 5.96907 7.88166C5.9245 8.18189 5.94705 8.48828 6.0351 8.77875C6.12315 9.06923 6.2745 9.33657 6.47827 9.56152C6.68205 9.78648 6.93316 9.96346 7.21354 10.0797ZM5.76291 5.94601C6.05663 5.65229 6.40532 5.4193 6.78909 5.26034C7.17285 5.10138 7.58417 5.01957 7.99955 5.01957C8.41493 5.01957 8.82625 5.10138 9.21001 5.26034C9.59378 5.4193 9.94247 5.65229 10.2362 5.94601C10.5299 6.23973 10.7629 6.58843 10.9219 6.9722C11.0808 7.35596 11.1626 7.76728 11.1626 8.18266C11.1626 8.59804 11.0808 9.00936 10.9219 9.39312C10.7629 9.77689 10.5299 10.1256 10.2362 10.4193C9.643 11.0125 8.83845 11.3458 7.99955 11.3458C7.16065 11.3458 6.3561 11.0125 5.76291 10.4193C5.16971 9.82611 4.83646 9.02156 4.83646 8.18266C4.83646 7.34375 5.16971 6.53921 5.76291 5.94601ZM11.8642 5.49063C11.937 5.42197 11.9952 5.3394 12.0355 5.24782C12.0758 5.15623 12.0973 5.05749 12.0988 4.95744C12.1003 4.85739 12.0816 4.75807 12.044 4.66535C12.0064 4.57263 11.9506 4.4884 11.8798 4.41764C11.8091 4.34689 11.7248 4.29105 11.6321 4.25344C11.5394 4.21582 11.4401 4.19719 11.34 4.19865C11.24 4.20011 11.1412 4.22162 11.0496 4.26193C10.9581 4.30223 10.8755 4.3605 10.8068 4.43329C10.6733 4.57484 10.6002 4.76286 10.603 4.95744C10.6059 5.15202 10.6844 5.33783 10.822 5.47544C10.9596 5.61304 11.1454 5.6916 11.34 5.69443C11.5346 5.69727 11.7226 5.62416 11.8642 5.49063Z" fill="#F5F8FB"/>
</svg>
