<svg width="10" height="10" viewBox="0 0 10 10" fill="none" xmlns="http://www.w3.org/2000/svg">
<path fill-rule="evenodd" clip-rule="evenodd" d="M0.529247 0.771861C0.789596 0.511512 1.21171 0.511512 1.47206 0.771861L5.00065 4.30046L8.52925 0.771861C8.7896 0.511512 9.21171 0.511512 9.47206 0.771861C9.73241 1.03221 9.73241 1.45432 9.47206 1.71467L5.94346 5.24327L9.47206 8.77186C9.73241 9.03221 9.73241 9.45432 9.47206 9.71467C9.21171 9.97502 8.7896 9.97502 8.52925 9.71467L5.00065 6.18607L1.47206 9.71467C1.21171 9.97502 0.789596 9.97502 0.529247 9.71467C0.268897 9.45432 0.268897 9.03221 0.529247 8.77186L4.05784 5.24327L0.529247 1.71467C0.268897 1.45432 0.268897 1.03221 0.529247 0.771861Z" fill="#F5F8FB"/>
</svg>
