<svg width="16" height="17" viewBox="0 0 16 17" fill="none" xmlns="http://www.w3.org/2000/svg">
<path fill-rule="evenodd" clip-rule="evenodd" d="M7.9999 2.90999C6.71124 2.90999 5.66657 3.95466 5.66657 5.24333C5.66657 6.53199 6.71124 7.57666 7.9999 7.57666C9.28857 7.57666 10.3332 6.53199 10.3332 5.24333C10.3332 3.95466 9.28857 2.90999 7.9999 2.90999ZM4.33323 5.24333C4.33323 3.21828 5.97486 1.57666 7.9999 1.57666C10.0249 1.57666 11.6666 3.21828 11.6666 5.24333C11.6666 7.26837 10.0249 8.90999 7.9999 8.90999C5.97486 8.90999 4.33323 7.26837 4.33323 5.24333ZM7.9999 10.91C6.10721 10.91 4.42023 11.8228 3.34246 13.2492C3.27653 13.3365 3.22607 13.4033 3.1841 13.4621C3.15224 13.5067 3.13049 13.5394 3.11535 13.5643C3.21443 13.5756 3.35561 13.5767 3.61806 13.5767H12.3817C12.6442 13.5767 12.7854 13.5756 12.8845 13.5643C12.8693 13.5394 12.8476 13.5067 12.8157 13.4621C12.7737 13.4033 12.7233 13.3365 12.6573 13.2492C11.5796 11.8228 9.89259 10.91 7.9999 10.91ZM2.27866 12.4454C3.59397 10.7047 5.66582 9.57666 7.9999 9.57666C10.334 9.57666 12.4058 10.7047 13.7211 12.4454C13.7271 12.4533 13.7331 12.4612 13.7391 12.4691C13.8521 12.6187 13.9734 12.779 14.0601 12.9337C14.165 13.121 14.2427 13.3376 14.2379 13.601C14.234 13.8128 14.1698 14.0111 14.0919 14.1676C14.014 14.3241 13.8945 14.4948 13.7279 14.6256C13.5057 14.8 13.2637 14.8617 13.0488 14.8875C12.8602 14.9101 12.6368 14.91 12.4121 14.91C12.402 14.91 12.3919 14.91 12.3817 14.91H3.61806C3.60793 14.91 3.5978 14.91 3.58768 14.91C3.36301 14.91 3.13956 14.9101 2.951 14.8875C2.73607 14.8617 2.49413 14.8 2.27192 14.6256C2.10529 14.4948 1.9858 14.3241 1.90788 14.1676C1.82997 14.0111 1.7658 13.8128 1.76193 13.601C1.75711 13.3376 1.83485 13.121 1.93974 12.9337C2.0264 12.779 2.14766 12.6187 2.26075 12.4691C2.26674 12.4612 2.27272 12.4533 2.27866 12.4454Z" fill="white"/>
</svg>
