<svg width="16" height="17" viewBox="0 0 16 17" fill="none" xmlns="http://www.w3.org/2000/svg">
<path d="M13.0958 4.30265C13.6672 3.9452 14.0947 3.38235 14.2986 2.71919C13.7616 3.05256 13.1742 3.2874 12.5616 3.41354C11.7123 2.47342 10.3667 2.24464 9.27666 2.85503C8.18662 3.46542 7.62201 4.76388 7.89833 6.02485C5.69901 5.90931 3.64997 4.82219 2.26108 3.03402C1.53624 4.34229 1.90665 6.0147 3.10756 6.85593C2.6733 6.84132 2.24866 6.71829 1.86907 6.49709C1.86907 6.50909 1.86907 6.5211 1.86907 6.53311C1.86932 7.89589 2.78718 9.06976 4.06367 9.33985C3.66087 9.45452 3.23836 9.4714 2.82837 9.3892C3.18736 10.5546 4.21381 11.353 5.38375 11.3769C4.41478 12.1727 3.21813 12.6043 1.98635 12.6021C1.76802 12.6025 1.54986 12.5893 1.33301 12.5628C2.58385 13.4039 4.03968 13.8503 5.52653 13.8488C7.59508 13.8636 9.58302 13.0103 11.0457 11.4796C12.5083 9.94891 13.3237 7.86861 13.3093 5.70402C13.3093 5.57996 13.3065 5.45657 13.301 5.33384C13.8367 4.9287 14.2991 4.42682 14.6663 3.85176C14.1673 4.08325 13.6379 4.23524 13.0958 4.30265Z" fill="#F5F8FB"/>
</svg>
